<mxfile host="app.diagrams.net" modified="2023-11-20T13:26:43.508Z" agent="Mozilla/5.0 (Windows NT 10.0; Win64; x64) AppleWebKit/537.36 (KHTML, like Gecko) Chrome/119.0.0.0 Safari/537.36 Edg/119.0.0.0" etag="jljqh4IkENuE2ejLU7qS" version="22.1.3" type="device">
  <diagram name="Pagina-1" id="6ebKSwHgrZWEVFDDrTTQ">
    <mxGraphModel dx="1489" dy="913" grid="1" gridSize="10" guides="1" tooltips="1" connect="1" arrows="1" fold="1" page="1" pageScale="1" pageWidth="1654" pageHeight="1169" math="0" shadow="0">
      <root>
        <mxCell id="0" />
        <mxCell id="1" parent="0" />
        <mxCell id="R9qcSIOGfT1Ncwx8mGfi-1" value="Car" style="html=1;overflow=block;blockSpacing=1;whiteSpace=wrap;ellipse;fontSize=16.7;spacing=3.8;strokeColor=default;fillOpacity=100;rounded=1;absoluteArcSize=1;arcSize=9;fillColor=#edf5ff;strokeWidth=NaN;lucidId=Os1O2qnXkTLK;" vertex="1" parent="1">
          <mxGeometry x="665" y="470" width="90" height="90" as="geometry" />
        </mxCell>
        <mxCell id="R9qcSIOGfT1Ncwx8mGfi-2" value="" style="html=1;jettySize=18;whiteSpace=wrap;fontSize=13;strokeColor=#3a414a;strokeOpacity=100;strokeWidth=0.8;rounded=1;arcSize=12;edgeStyle=orthogonalEdgeStyle;startArrow=none;endArrow=block;endFill=1;exitX=1.004;exitY=0.5;exitPerimeter=0;entryX=-0.004;entryY=0.5;entryPerimeter=0;lucidId=1s1Ouu4uFood;" edge="1" parent="1" source="R9qcSIOGfT1Ncwx8mGfi-1" target="R9qcSIOGfT1Ncwx8mGfi-4">
          <mxGeometry width="100" height="100" relative="1" as="geometry">
            <Array as="points" />
          </mxGeometry>
        </mxCell>
        <mxCell id="R9qcSIOGfT1Ncwx8mGfi-3" value="hasModelYear" style="text;html=1;resizable=0;labelBackgroundColor=default;align=center;verticalAlign=middle;fontStyle=1;fontColor=#333333;fontSize=13.3;" vertex="1" parent="R9qcSIOGfT1Ncwx8mGfi-2">
          <mxGeometry x="-0.2734198802061023" relative="1" as="geometry" />
        </mxCell>
        <mxCell id="R9qcSIOGfT1Ncwx8mGfi-4" value="ModelYear" style="html=1;overflow=block;blockSpacing=1;whiteSpace=wrap;ellipse;fontSize=16.7;spacing=3.8;strokeColor=default;fillOpacity=100;rounded=1;absoluteArcSize=1;arcSize=9;fillColor=#edf5ff;strokeWidth=NaN;lucidId=1s1OTW7Ci2Y1;" vertex="1" parent="1">
          <mxGeometry x="965" y="470" width="90" height="90" as="geometry" />
        </mxCell>
        <mxCell id="R9qcSIOGfT1Ncwx8mGfi-5" value="" style="html=1;jettySize=18;whiteSpace=wrap;fontSize=13;strokeColor=#3a414a;strokeOpacity=100;strokeWidth=0.8;rounded=1;arcSize=12;edgeStyle=orthogonalEdgeStyle;startArrow=none;endArrow=block;endFill=1;exitX=1.004;exitY=0.5;exitPerimeter=0;entryX=-0.004;entryY=0.5;entryPerimeter=0;lucidId=it1O_J1TxxnW;" edge="1" parent="1" source="R9qcSIOGfT1Ncwx8mGfi-4" target="R9qcSIOGfT1Ncwx8mGfi-7">
          <mxGeometry width="100" height="100" relative="1" as="geometry">
            <Array as="points" />
          </mxGeometry>
        </mxCell>
        <mxCell id="R9qcSIOGfT1Ncwx8mGfi-6" value="ofYear" style="text;html=1;resizable=0;labelBackgroundColor=default;align=center;verticalAlign=middle;fontStyle=1;fontColor=#333333;fontSize=13.3;" vertex="1" parent="R9qcSIOGfT1Ncwx8mGfi-5">
          <mxGeometry x="-0.32405319135538957" relative="1" as="geometry" />
        </mxCell>
        <mxCell id="R9qcSIOGfT1Ncwx8mGfi-7" value="Year" style="html=1;overflow=block;blockSpacing=1;whiteSpace=wrap;ellipse;fontSize=16.7;spacing=3.8;strokeColor=default;fillOpacity=100;rounded=1;absoluteArcSize=1;arcSize=9;fillColor=#edf5ff;strokeWidth=NaN;lucidId=it1Or9sRay8V;" vertex="1" parent="1">
          <mxGeometry x="1175" y="470" width="90" height="90" as="geometry" />
        </mxCell>
        <mxCell id="R9qcSIOGfT1Ncwx8mGfi-8" value="" style="html=1;jettySize=18;whiteSpace=wrap;fontSize=13;strokeColor=#3a414a;strokeOpacity=100;strokeWidth=0.8;rounded=1;arcSize=12;edgeStyle=orthogonalEdgeStyle;startArrow=none;endArrow=block;endFill=1;exitX=0.5;exitY=-0.004;exitPerimeter=0;entryX=0.5;entryY=1.004;entryPerimeter=0;lucidId=ot1Ofiux3nKR;" edge="1" parent="1" source="R9qcSIOGfT1Ncwx8mGfi-4" target="R9qcSIOGfT1Ncwx8mGfi-10">
          <mxGeometry width="100" height="100" relative="1" as="geometry">
            <Array as="points" />
          </mxGeometry>
        </mxCell>
        <mxCell id="R9qcSIOGfT1Ncwx8mGfi-9" value="ofModel" style="text;html=1;resizable=0;labelBackgroundColor=default;align=center;verticalAlign=middle;fontStyle=1;fontColor=#333333;fontSize=13.3;" vertex="1" parent="R9qcSIOGfT1Ncwx8mGfi-8">
          <mxGeometry relative="1" as="geometry" />
        </mxCell>
        <mxCell id="R9qcSIOGfT1Ncwx8mGfi-10" value="Model" style="html=1;overflow=block;blockSpacing=1;whiteSpace=wrap;ellipse;fontSize=16.7;spacing=3.8;strokeColor=default;fillOpacity=100;rounded=1;absoluteArcSize=1;arcSize=9;fillColor=#edf5ff;strokeWidth=NaN;lucidId=ot1OwlmNDwQG;" vertex="1" parent="1">
          <mxGeometry x="965" y="320" width="90" height="90" as="geometry" />
        </mxCell>
        <mxCell id="R9qcSIOGfT1Ncwx8mGfi-11" value="" style="html=1;jettySize=18;whiteSpace=wrap;fontSize=13;strokeColor=#3a414a;strokeOpacity=100;strokeWidth=0.8;rounded=1;arcSize=12;edgeStyle=orthogonalEdgeStyle;startArrow=none;endArrow=block;endFill=1;exitX=0.5;exitY=-0.004;exitPerimeter=0;entryX=0.5;entryY=1.004;entryPerimeter=0;lucidId=Ct1O5iaR3bhI;" edge="1" parent="1" source="R9qcSIOGfT1Ncwx8mGfi-10" target="R9qcSIOGfT1Ncwx8mGfi-13">
          <mxGeometry width="100" height="100" relative="1" as="geometry">
            <Array as="points" />
          </mxGeometry>
        </mxCell>
        <mxCell id="R9qcSIOGfT1Ncwx8mGfi-12" value="madeBy" style="text;html=1;resizable=0;labelBackgroundColor=default;align=center;verticalAlign=middle;fontStyle=1;fontColor=#333333;fontSize=13.3;" vertex="1" parent="R9qcSIOGfT1Ncwx8mGfi-11">
          <mxGeometry x="-0.18734325125231144" relative="1" as="geometry" />
        </mxCell>
        <mxCell id="R9qcSIOGfT1Ncwx8mGfi-13" value="Maker" style="html=1;overflow=block;blockSpacing=1;whiteSpace=wrap;ellipse;fontSize=16.7;spacing=3.8;strokeColor=default;fillOpacity=100;rounded=1;absoluteArcSize=1;arcSize=9;fillColor=#edf5ff;strokeWidth=1;lucidId=Ct1OrBrMs6CW;perimeterSpacing=0;gradientColor=none;" vertex="1" parent="1">
          <mxGeometry x="965" y="170" width="90" height="90" as="geometry" />
        </mxCell>
        <mxCell id="R9qcSIOGfT1Ncwx8mGfi-14" value="" style="html=1;jettySize=18;whiteSpace=wrap;fontSize=13;strokeColor=#3a414a;strokeOpacity=100;strokeWidth=0.8;rounded=1;arcSize=12;edgeStyle=orthogonalEdgeStyle;startArrow=none;endArrow=block;endFill=1;exitX=0.739;exitY=0.056;exitPerimeter=0;entryX=0.5;entryY=1.012;entryPerimeter=0;lucidId=1t1OtkIKNWra;" edge="1" parent="1" source="R9qcSIOGfT1Ncwx8mGfi-1" target="R9qcSIOGfT1Ncwx8mGfi-16">
          <mxGeometry width="100" height="100" relative="1" as="geometry">
            <Array as="points" />
          </mxGeometry>
        </mxCell>
        <mxCell id="R9qcSIOGfT1Ncwx8mGfi-15" value="hasVin" style="text;html=1;resizable=0;labelBackgroundColor=default;align=center;verticalAlign=middle;fontStyle=1;fontColor=#333333;fontSize=13.3;" vertex="1" parent="R9qcSIOGfT1Ncwx8mGfi-14">
          <mxGeometry relative="1" as="geometry" />
        </mxCell>
        <mxCell id="R9qcSIOGfT1Ncwx8mGfi-16" value="VIN" style="html=1;overflow=block;blockSpacing=1;whiteSpace=wrap;fontSize=16.7;spacing=9;strokeColor=default;rounded=1;absoluteArcSize=1;arcSize=9;fillColor=default;strokeWidth=1;lucidId=3t1OEM6T._IZ;fontColor=#333333;verticalAlign=top;horizontal=1;" vertex="1" parent="1">
          <mxGeometry x="778" y="350" width="82" height="30" as="geometry" />
        </mxCell>
        <mxCell id="R9qcSIOGfT1Ncwx8mGfi-17" value="" style="html=1;jettySize=18;whiteSpace=wrap;fontSize=13;strokeColor=#3a414a;strokeOpacity=100;strokeWidth=0.8;rounded=1;arcSize=12;edgeStyle=orthogonalEdgeStyle;startArrow=none;endArrow=block;endFill=1;exitX=0.317;exitY=0.03;exitPerimeter=0;entryX=0.5;entryY=1.012;entryPerimeter=0;lucidId=vu1OIfJoRmDf;" edge="1" parent="1" source="R9qcSIOGfT1Ncwx8mGfi-1" target="R9qcSIOGfT1Ncwx8mGfi-19">
          <mxGeometry width="100" height="100" relative="1" as="geometry">
            <Array as="points" />
          </mxGeometry>
        </mxCell>
        <mxCell id="R9qcSIOGfT1Ncwx8mGfi-18" value="hasDol" style="text;html=1;resizable=0;labelBackgroundColor=default;align=center;verticalAlign=middle;fontStyle=1;fontColor=#333333;fontSize=13.3;" vertex="1" parent="R9qcSIOGfT1Ncwx8mGfi-17">
          <mxGeometry relative="1" as="geometry" />
        </mxCell>
        <mxCell id="R9qcSIOGfT1Ncwx8mGfi-19" value="DOLid" style="html=1;overflow=block;blockSpacing=1;whiteSpace=wrap;fontSize=16.7;spacing=9;strokeColor=default;rounded=1;absoluteArcSize=1;arcSize=9;fillColor=default;strokeWidth=1;lucidId=Au1OJkuKv.Y-;fontColor=#333333;verticalAlign=top;horizontal=1;" vertex="1" parent="1">
          <mxGeometry x="560" y="350" width="82" height="30" as="geometry" />
        </mxCell>
        <mxCell id="R9qcSIOGfT1Ncwx8mGfi-20" value="" style="html=1;jettySize=18;whiteSpace=wrap;fontSize=13;strokeColor=#3a414a;strokeOpacity=100;strokeWidth=0.8;rounded=1;arcSize=12;edgeStyle=orthogonalEdgeStyle;startArrow=none;endArrow=block;endFill=1;exitX=0.5;exitY=-0.004;exitPerimeter=0;entryX=0.5;entryY=1.012;entryPerimeter=0;lucidId=_u1O~x01ch-v;" edge="1" parent="1" source="R9qcSIOGfT1Ncwx8mGfi-1" target="R9qcSIOGfT1Ncwx8mGfi-22">
          <mxGeometry width="100" height="100" relative="1" as="geometry">
            <Array as="points" />
          </mxGeometry>
        </mxCell>
        <mxCell id="R9qcSIOGfT1Ncwx8mGfi-21" value="hasRange" style="text;html=1;resizable=0;labelBackgroundColor=default;align=center;verticalAlign=middle;fontStyle=1;fontColor=#333333;fontSize=13.3;" vertex="1" parent="R9qcSIOGfT1Ncwx8mGfi-20">
          <mxGeometry x="0.21647760679977202" relative="1" as="geometry" />
        </mxCell>
        <mxCell id="R9qcSIOGfT1Ncwx8mGfi-22" value="range^^xsd:Integer" style="html=1;overflow=block;blockSpacing=1;whiteSpace=wrap;fontSize=16.7;spacing=9;strokeColor=default;rounded=1;absoluteArcSize=1;arcSize=9;fillColor=default;strokeWidth=1;lucidId=.u1OfOf~fiUd;fontColor=#333333;verticalAlign=top;horizontal=1;" vertex="1" parent="1">
          <mxGeometry x="628" y="275" width="165" height="30" as="geometry" />
        </mxCell>
        <mxCell id="R9qcSIOGfT1Ncwx8mGfi-23" value="" style="html=1;jettySize=18;whiteSpace=wrap;fontSize=13;strokeColor=#3a414a;strokeOpacity=100;strokeWidth=0.8;rounded=1;arcSize=12;edgeStyle=orthogonalEdgeStyle;startArrow=none;endArrow=block;endFill=1;exitX=-0.004;exitY=0.5;exitPerimeter=0;entryX=1.004;entryY=0.5;entryPerimeter=0;lucidId=Ew1O.1Jr6tQS;" edge="1" parent="1" source="R9qcSIOGfT1Ncwx8mGfi-1" target="R9qcSIOGfT1Ncwx8mGfi-25">
          <mxGeometry width="100" height="100" relative="1" as="geometry">
            <Array as="points" />
          </mxGeometry>
        </mxCell>
        <mxCell id="R9qcSIOGfT1Ncwx8mGfi-24" value="isRegisteredIn" style="text;html=1;resizable=0;labelBackgroundColor=default;align=center;verticalAlign=middle;fontStyle=1;fontColor=#333333;fontSize=13.3;" vertex="1" parent="R9qcSIOGfT1Ncwx8mGfi-23">
          <mxGeometry relative="1" as="geometry" />
        </mxCell>
        <mxCell id="R9qcSIOGfT1Ncwx8mGfi-25" value="ZipCode" style="html=1;overflow=block;blockSpacing=1;whiteSpace=wrap;ellipse;fontSize=16.7;spacing=3.8;strokeColor=default;fillOpacity=100;rounded=1;absoluteArcSize=1;arcSize=9;fillColor=#fcfcca;strokeWidth=NaN;lucidId=Ew1OWQCflFgT;" vertex="1" parent="1">
          <mxGeometry x="380" y="470" width="90" height="90" as="geometry" />
        </mxCell>
        <mxCell id="R9qcSIOGfT1Ncwx8mGfi-26" value="" style="html=1;jettySize=18;whiteSpace=wrap;fontSize=13;strokeColor=#3a414a;strokeOpacity=100;strokeWidth=0.8;rounded=1;arcSize=12;edgeStyle=orthogonalEdgeStyle;startArrow=none;endArrow=block;endFill=1;exitX=0.5;exitY=1.004;exitPerimeter=0;entryX=0.5;entryY=-0.004;entryPerimeter=0;lucidId=Vw1Oxh8Qyr1-;" edge="1" parent="1" source="R9qcSIOGfT1Ncwx8mGfi-25" target="R9qcSIOGfT1Ncwx8mGfi-28">
          <mxGeometry width="100" height="100" relative="1" as="geometry">
            <Array as="points" />
          </mxGeometry>
        </mxCell>
        <mxCell id="R9qcSIOGfT1Ncwx8mGfi-27" value="ofCity" style="text;html=1;resizable=0;labelBackgroundColor=default;align=center;verticalAlign=middle;fontStyle=1;fontColor=#333333;fontSize=13.3;" vertex="1" parent="R9qcSIOGfT1Ncwx8mGfi-26">
          <mxGeometry x="-0.18227992013741345" relative="1" as="geometry" />
        </mxCell>
        <mxCell id="R9qcSIOGfT1Ncwx8mGfi-28" value="City" style="html=1;overflow=block;blockSpacing=1;whiteSpace=wrap;ellipse;fontSize=16.7;spacing=3.8;strokeColor=default;fillOpacity=100;rounded=1;absoluteArcSize=1;arcSize=9;fillColor=#fcfcca;strokeWidth=NaN;lucidId=Vw1Oo~C-vCxp;" vertex="1" parent="1">
          <mxGeometry x="380" y="635" width="90" height="90" as="geometry" />
        </mxCell>
        <mxCell id="R9qcSIOGfT1Ncwx8mGfi-29" value="" style="html=1;jettySize=18;whiteSpace=wrap;fontSize=13;strokeColor=#3a414a;strokeOpacity=100;strokeWidth=0.8;rounded=1;arcSize=12;edgeStyle=orthogonalEdgeStyle;startArrow=none;endArrow=block;endFill=1;exitX=0.5;exitY=1.004;exitPerimeter=0;entryX=0.5;entryY=-0.004;entryPerimeter=0;lucidId=-w1O87nsNx36;" edge="1" parent="1" source="R9qcSIOGfT1Ncwx8mGfi-28">
          <mxGeometry width="100" height="100" relative="1" as="geometry">
            <Array as="points" />
            <mxPoint x="425" y="799.6399999999999" as="targetPoint" />
          </mxGeometry>
        </mxCell>
        <mxCell id="R9qcSIOGfT1Ncwx8mGfi-30" value="belongsTo" style="text;html=1;resizable=0;labelBackgroundColor=default;align=center;verticalAlign=middle;fontStyle=1;fontColor=#333333;fontSize=13.3;" vertex="1" parent="R9qcSIOGfT1Ncwx8mGfi-29">
          <mxGeometry x="-0.1232110425202213" relative="1" as="geometry" />
        </mxCell>
        <mxCell id="R9qcSIOGfT1Ncwx8mGfi-31" value="County" style="html=1;overflow=block;blockSpacing=1;whiteSpace=wrap;ellipse;fontSize=16.7;spacing=3.8;strokeColor=default;fillOpacity=100;rounded=1;absoluteArcSize=1;arcSize=9;fillColor=#fcfcca;strokeWidth=NaN;lucidId=-w1OLK29v8BK;" vertex="1" parent="1">
          <mxGeometry x="380" y="800" width="90" height="90" as="geometry" />
        </mxCell>
        <mxCell id="R9qcSIOGfT1Ncwx8mGfi-32" value="Station" style="html=1;overflow=block;blockSpacing=1;whiteSpace=wrap;ellipse;fontSize=16.7;spacing=3.8;strokeColor=default;fillOpacity=100;rounded=1;absoluteArcSize=1;arcSize=9;fillColor=#e3fae3;strokeWidth=NaN;lucidId=rx1O~R7pykx_;" vertex="1" parent="1">
          <mxGeometry x="170" y="470" width="90" height="90" as="geometry" />
        </mxCell>
        <mxCell id="R9qcSIOGfT1Ncwx8mGfi-33" value="" style="html=1;jettySize=18;whiteSpace=wrap;fontSize=13;strokeColor=#3a414a;strokeOpacity=100;strokeWidth=0.8;rounded=1;arcSize=12;edgeStyle=orthogonalEdgeStyle;startArrow=none;endArrow=block;endFill=1;exitX=1.004;exitY=0.5;exitPerimeter=0;entryX=-0.004;entryY=0.5;entryPerimeter=0;lucidId=Dx1OYmT3YGP5;" edge="1" parent="1" source="R9qcSIOGfT1Ncwx8mGfi-32" target="R9qcSIOGfT1Ncwx8mGfi-25">
          <mxGeometry width="100" height="100" relative="1" as="geometry">
            <Array as="points" />
          </mxGeometry>
        </mxCell>
        <mxCell id="R9qcSIOGfT1Ncwx8mGfi-34" value="locatedIn" style="text;html=1;resizable=0;labelBackgroundColor=default;align=center;verticalAlign=middle;fontStyle=1;fontColor=#333333;fontSize=13.3;" vertex="1" parent="R9qcSIOGfT1Ncwx8mGfi-33">
          <mxGeometry relative="1" as="geometry" />
        </mxCell>
        <mxCell id="R9qcSIOGfT1Ncwx8mGfi-35" value="" style="html=1;jettySize=18;whiteSpace=wrap;fontSize=13;strokeColor=#3a414a;strokeOpacity=100;strokeWidth=0.8;rounded=1;arcSize=12;edgeStyle=orthogonalEdgeStyle;startArrow=none;endArrow=block;endFill=1;exitX=0.508;exitY=-0.004;exitPerimeter=0;entryX=0.505;entryY=1.012;entryPerimeter=0;lucidId=Wx1O5GCra6RN;" edge="1" parent="1" source="R9qcSIOGfT1Ncwx8mGfi-25" target="R9qcSIOGfT1Ncwx8mGfi-37">
          <mxGeometry width="100" height="100" relative="1" as="geometry">
            <Array as="points" />
          </mxGeometry>
        </mxCell>
        <mxCell id="R9qcSIOGfT1Ncwx8mGfi-36" value="hasAgi" style="text;html=1;resizable=0;labelBackgroundColor=default;align=center;verticalAlign=middle;fontStyle=1;fontColor=#333333;fontSize=13.3;" vertex="1" parent="R9qcSIOGfT1Ncwx8mGfi-35">
          <mxGeometry relative="1" as="geometry" />
        </mxCell>
        <mxCell id="R9qcSIOGfT1Ncwx8mGfi-37" value="AGI^^xsd:Integer" style="html=1;overflow=block;blockSpacing=1;whiteSpace=wrap;fontSize=16.7;spacing=9;strokeColor=default;rounded=1;absoluteArcSize=1;arcSize=9;fillColor=default;strokeWidth=1;lucidId=Xx1OfmO..szG;fontColor=#333333;verticalAlign=top;horizontal=1;" vertex="1" parent="1">
          <mxGeometry x="350" y="350" width="150" height="30" as="geometry" />
        </mxCell>
        <mxCell id="R9qcSIOGfT1Ncwx8mGfi-38" value="" style="html=1;jettySize=18;whiteSpace=wrap;fontSize=13;strokeColor=#3a414a;strokeOpacity=100;strokeWidth=0.8;rounded=1;arcSize=12;edgeStyle=orthogonalEdgeStyle;startArrow=none;endArrow=block;endFill=1;exitX=0.5;exitY=1.004;exitPerimeter=0;entryX=0.5;entryY=-0.012;entryPerimeter=0;lucidId=6B1OSi53PP30;" edge="1" parent="1" source="R9qcSIOGfT1Ncwx8mGfi-4" target="R9qcSIOGfT1Ncwx8mGfi-40">
          <mxGeometry width="100" height="100" relative="1" as="geometry">
            <Array as="points" />
          </mxGeometry>
        </mxCell>
        <mxCell id="R9qcSIOGfT1Ncwx8mGfi-39" value="hasMSRP" style="text;html=1;resizable=0;labelBackgroundColor=default;align=center;verticalAlign=middle;fontStyle=1;fontColor=#333333;fontSize=13.3;" vertex="1" parent="R9qcSIOGfT1Ncwx8mGfi-38">
          <mxGeometry x="-0.3151560038782376" relative="1" as="geometry" />
        </mxCell>
        <mxCell id="R9qcSIOGfT1Ncwx8mGfi-40" value="MSRP^^xsd:Integer" style="html=1;overflow=block;blockSpacing=1;whiteSpace=wrap;fontSize=16.7;spacing=9;strokeColor=default;rounded=1;absoluteArcSize=1;arcSize=9;fillColor=default;strokeWidth=1;lucidId=7B1Od-MZ6ZxI;fontColor=#333333;verticalAlign=top;horizontal=1;" vertex="1" parent="1">
          <mxGeometry x="920" y="635" width="180" height="30" as="geometry" />
        </mxCell>
        <mxCell id="R9qcSIOGfT1Ncwx8mGfi-41" value="" style="html=1;jettySize=18;whiteSpace=wrap;fontSize=13;strokeColor=#3a414a;strokeOpacity=100;strokeWidth=0.8;rounded=1;arcSize=12;edgeStyle=orthogonalEdgeStyle;startArrow=none;endArrow=block;endFill=1;exitX=0.5;exitY=-0.004;exitPerimeter=0;entryX=0.5;entryY=1.012;entryPerimeter=0;lucidId=RF1OCfXK_F4R;" edge="1" parent="1" source="R9qcSIOGfT1Ncwx8mGfi-32" target="R9qcSIOGfT1Ncwx8mGfi-43">
          <mxGeometry width="100" height="100" relative="1" as="geometry">
            <Array as="points" />
          </mxGeometry>
        </mxCell>
        <mxCell id="R9qcSIOGfT1Ncwx8mGfi-42" value="hasName" style="text;html=1;resizable=0;labelBackgroundColor=default;align=center;verticalAlign=middle;fontStyle=1;fontColor=#333333;fontSize=13.3;" vertex="1" parent="R9qcSIOGfT1Ncwx8mGfi-41">
          <mxGeometry x="-0.2958020110584042" relative="1" as="geometry" />
        </mxCell>
        <mxCell id="R9qcSIOGfT1Ncwx8mGfi-43" value="name^^xsd:String" style="html=1;overflow=block;blockSpacing=1;whiteSpace=wrap;fontSize=16.7;spacing=9;rounded=1;absoluteArcSize=1;arcSize=9;strokeWidth=1;lucidId=SF1OhaQ1grFW;fillColor=default;fontColor=#333333;strokeColor=default;verticalAlign=top;horizontal=1;" vertex="1" parent="1">
          <mxGeometry x="140" y="350" width="150" height="30" as="geometry" />
        </mxCell>
        <mxCell id="R9qcSIOGfT1Ncwx8mGfi-44" value="" style="html=1;jettySize=18;whiteSpace=wrap;fontSize=13;strokeColor=#3a414a;strokeOpacity=100;strokeWidth=0.8;rounded=1;arcSize=12;edgeStyle=orthogonalEdgeStyle;startArrow=block;startFill=1;endArrow=none;exitX=0.075;exitY=0.771;exitPerimeter=0;entryX=0.5;entryY=-0.004;entryPerimeter=0;lucidId=eI1O_Iygyy8d;" edge="1" parent="1" source="R9qcSIOGfT1Ncwx8mGfi-1" target="R9qcSIOGfT1Ncwx8mGfi-46">
          <mxGeometry width="100" height="100" relative="1" as="geometry">
            <Array as="points" />
          </mxGeometry>
        </mxCell>
        <mxCell id="R9qcSIOGfT1Ncwx8mGfi-45" value="subclassof" style="text;html=1;resizable=0;labelBackgroundColor=default;align=center;verticalAlign=middle;fontStyle=1;fontColor=#333333;fontSize=13.3;" vertex="1" parent="R9qcSIOGfT1Ncwx8mGfi-44">
          <mxGeometry x="0.4008423599611588" relative="1" as="geometry" />
        </mxCell>
        <mxCell id="R9qcSIOGfT1Ncwx8mGfi-46" value="BEV" style="html=1;overflow=block;blockSpacing=1;whiteSpace=wrap;ellipse;fontSize=16.7;spacing=3.8;strokeColor=default;fillOpacity=100;rounded=1;absoluteArcSize=1;arcSize=9;fillColor=#edf5ff;strokeWidth=NaN;lucidId=eI1O9qz4zxc3;" vertex="1" parent="1">
          <mxGeometry x="530" y="605" width="90" height="90" as="geometry" />
        </mxCell>
        <mxCell id="R9qcSIOGfT1Ncwx8mGfi-47" value="" style="html=1;jettySize=18;whiteSpace=wrap;fontSize=13;strokeColor=#3a414a;strokeOpacity=100;strokeWidth=0.8;rounded=1;arcSize=12;edgeStyle=orthogonalEdgeStyle;startArrow=block;startFill=1;endArrow=none;exitX=0.278;exitY=0.952;exitPerimeter=0;entryX=0.5;entryY=-0.004;entryPerimeter=0;lucidId=NI1OuKBxsP~g;" edge="1" parent="1" source="R9qcSIOGfT1Ncwx8mGfi-1" target="R9qcSIOGfT1Ncwx8mGfi-49">
          <mxGeometry width="100" height="100" relative="1" as="geometry">
            <Array as="points" />
          </mxGeometry>
        </mxCell>
        <mxCell id="R9qcSIOGfT1Ncwx8mGfi-48" value="subclassof" style="text;html=1;resizable=0;labelBackgroundColor=default;align=center;verticalAlign=middle;fontStyle=1;fontSize=13.3;" vertex="1" parent="R9qcSIOGfT1Ncwx8mGfi-47">
          <mxGeometry x="0.8069094236723289" relative="1" as="geometry" />
        </mxCell>
        <mxCell id="R9qcSIOGfT1Ncwx8mGfi-49" value="PHEV" style="html=1;overflow=block;blockSpacing=1;whiteSpace=wrap;ellipse;fontSize=16.7;spacing=3.8;strokeColor=default;fillOpacity=100;rounded=1;absoluteArcSize=1;arcSize=9;fillColor=#edf5ff;strokeWidth=NaN;lucidId=NI1OlC09T_vV;" vertex="1" parent="1">
          <mxGeometry x="605" y="710" width="90" height="90" as="geometry" />
        </mxCell>
        <mxCell id="R9qcSIOGfT1Ncwx8mGfi-50" value="" style="html=1;jettySize=18;whiteSpace=wrap;fontSize=13;strokeColor=#3a414a;strokeOpacity=100;strokeWidth=0.8;rounded=1;arcSize=12;edgeStyle=orthogonalEdgeStyle;startArrow=block;startFill=1;endArrow=none;exitX=0.71;exitY=0.958;exitPerimeter=0;entryX=0.5;entryY=-0.004;entryPerimeter=0;lucidId=6I1O4U0I6-T0;" edge="1" parent="1" source="R9qcSIOGfT1Ncwx8mGfi-1" target="R9qcSIOGfT1Ncwx8mGfi-52">
          <mxGeometry width="100" height="100" relative="1" as="geometry">
            <Array as="points" />
          </mxGeometry>
        </mxCell>
        <mxCell id="R9qcSIOGfT1Ncwx8mGfi-51" value="subclassof" style="text;html=1;resizable=0;labelBackgroundColor=default;align=center;verticalAlign=middle;fontStyle=1;fontSize=13.3;" vertex="1" parent="R9qcSIOGfT1Ncwx8mGfi-50">
          <mxGeometry x="0.7941117615796491" relative="1" as="geometry" />
        </mxCell>
        <mxCell id="R9qcSIOGfT1Ncwx8mGfi-52" value="CleanCar" style="html=1;overflow=block;blockSpacing=1;whiteSpace=wrap;ellipse;fontSize=16.7;spacing=3.8;strokeColor=default;fillOpacity=100;rounded=1;absoluteArcSize=1;arcSize=9;fillColor=#edf5ff;strokeWidth=NaN;lucidId=6I1OSQpG-oj7;" vertex="1" parent="1">
          <mxGeometry x="725" y="710" width="90" height="90" as="geometry" />
        </mxCell>
        <mxCell id="R9qcSIOGfT1Ncwx8mGfi-53" value="" style="html=1;jettySize=18;whiteSpace=wrap;fontSize=13;strokeColor=#3a414a;strokeOpacity=100;strokeWidth=0.8;rounded=1;arcSize=12;edgeStyle=orthogonalEdgeStyle;startArrow=block;startFill=1;endArrow=none;exitX=0.931;exitY=0.76;exitPerimeter=0;entryX=0.5;entryY=-0.004;entryPerimeter=0;lucidId=bJ1O8Z8VCAd9;" edge="1" parent="1" source="R9qcSIOGfT1Ncwx8mGfi-1" target="R9qcSIOGfT1Ncwx8mGfi-55">
          <mxGeometry width="100" height="100" relative="1" as="geometry">
            <Array as="points" />
          </mxGeometry>
        </mxCell>
        <mxCell id="R9qcSIOGfT1Ncwx8mGfi-54" value="subclassof" style="text;html=1;resizable=0;labelBackgroundColor=default;align=center;verticalAlign=middle;fontStyle=1;fontSize=13.3;" vertex="1" parent="R9qcSIOGfT1Ncwx8mGfi-53">
          <mxGeometry x="0.42077378396172405" relative="1" as="geometry" />
        </mxCell>
        <mxCell id="R9qcSIOGfT1Ncwx8mGfi-55" value="NotCleanCar" style="html=1;overflow=block;blockSpacing=1;whiteSpace=wrap;ellipse;fontSize=13.3;spacing=3.8;strokeColor=default;fillOpacity=100;rounded=1;absoluteArcSize=1;arcSize=9;fillColor=#edf5ff;strokeWidth=NaN;lucidId=bJ1OlrKJahhv;" vertex="1" parent="1">
          <mxGeometry x="800" y="605" width="90" height="90" as="geometry" />
        </mxCell>
      </root>
    </mxGraphModel>
  </diagram>
</mxfile>
